<svg width="24" height="18" viewBox="0 0 24 18" fill="none" xmlns="http://www.w3.org/2000/svg">
  <rect width="24" height="18" rx="2" fill="#B22234"/>
  <rect width="24" height="1.38" fill="#FFFFFF"/>
  <rect y="2.77" width="24" height="1.38" fill="#FFFFFF"/>
  <rect y="5.54" width="24" height="1.38" fill="#FFFFFF"/>
  <rect y="8.31" width="24" height="1.38" fill="#FFFFFF"/>
  <rect y="11.08" width="24" height="1.38" fill="#FFFFFF"/>
  <rect y="13.85" width="24" height="1.38" fill="#FFFFFF"/>
  <rect y="16.62" width="24" height="1.38" fill="#FFFFFF"/>
  <rect width="9.6" height="9.69" fill="#3C3B6E"/>
  <g fill="#FFFFFF">
    <circle cx="1.2" cy="1.38" r="0.3"/>
    <circle cx="2.4" cy="0.69" r="0.3"/>
    <circle cx="3.6" cy="1.38" r="0.3"/>
    <circle cx="4.8" cy="0.69" r="0.3"/>
    <circle cx="6" cy="1.38" r="0.3"/>
    <circle cx="7.2" cy="0.69" r="0.3"/>
    <circle cx="8.4" cy="1.38" r="0.3"/>
    <circle cx="1.2" cy="2.77" r="0.3"/>
    <circle cx="2.4" cy="2.08" r="0.3"/>
    <circle cx="3.6" cy="2.77" r="0.3"/>
    <circle cx="4.8" cy="2.08" r="0.3"/>
    <circle cx="6" cy="2.77" r="0.3"/>
    <circle cx="7.2" cy="2.08" r="0.3"/>
    <circle cx="8.4" cy="2.77" r="0.3"/>
    <circle cx="1.2" cy="4.15" r="0.3"/>
    <circle cx="2.4" cy="3.46" r="0.3"/>
    <circle cx="3.6" cy="4.15" r="0.3"/>
    <circle cx="4.8" cy="3.46" r="0.3"/>
    <circle cx="6" cy="4.15" r="0.3"/>
    <circle cx="7.2" cy="3.46" r="0.3"/>
    <circle cx="8.4" cy="4.15" r="0.3"/>
    <circle cx="1.2" cy="5.54" r="0.3"/>
    <circle cx="2.4" cy="4.85" r="0.3"/>
    <circle cx="3.6" cy="5.54" r="0.3"/>
    <circle cx="4.8" cy="4.85" r="0.3"/>
    <circle cx="6" cy="5.54" r="0.3"/>
    <circle cx="7.2" cy="4.85" r="0.3"/>
    <circle cx="8.4" cy="5.54" r="0.3"/>
    <circle cx="1.2" cy="6.92" r="0.3"/>
    <circle cx="2.4" cy="6.23" r="0.3"/>
    <circle cx="3.6" cy="6.92" r="0.3"/>
    <circle cx="4.8" cy="6.23" r="0.3"/>
    <circle cx="6" cy="6.92" r="0.3"/>
    <circle cx="7.2" cy="6.23" r="0.3"/>
    <circle cx="8.4" cy="6.92" r="0.3"/>
    <circle cx="1.2" cy="8.31" r="0.3"/>
    <circle cx="2.4" cy="7.62" r="0.3"/>
    <circle cx="3.6" cy="8.31" r="0.3"/>
    <circle cx="4.8" cy="7.62" r="0.3"/>
    <circle cx="6" cy="8.31" r="0.3"/>
    <circle cx="7.2" cy="7.62" r="0.3"/>
    <circle cx="8.4" cy="8.31" r="0.3"/>
  </g>
</svg> 