<svg width="54" height="54" viewBox="0 0 54 54" fill="none" xmlns="http://www.w3.org/2000/svg">
<path fill-rule="evenodd" clip-rule="evenodd" d="M28.6875 6.18726C28.6875 5.25528 27.932 4.49976 27 4.49976C26.068 4.49976 25.3125 5.25528 25.3125 6.18726V10.6873C25.3125 11.6192 26.068 12.3748 27 12.3748C27.932 12.3748 28.6875 11.6192 28.6875 10.6873V6.18726ZM7.94324 11.744C7.28423 11.085 6.21577 11.085 5.55676 11.744C4.89775 12.403 4.89775 13.4715 5.55676 14.1305L8.93176 17.5055C9.59077 18.1645 10.6592 18.1645 11.3182 17.5055C11.9773 16.8465 11.9773 15.778 11.3182 15.119L7.94324 11.744ZM48.4432 14.1305C49.1023 13.4715 49.1023 12.403 48.4432 11.744C47.7842 11.085 46.7158 11.085 46.0568 11.744L42.6818 15.119C42.0227 15.778 42.0227 16.8465 42.6818 17.5055C43.3408 18.1645 44.4092 18.1645 45.0682 17.5055L48.4432 14.1305ZM46.9737 27.7225C50.3421 30.947 50.3421 36.553 46.9737 39.7775C42.3301 44.2226 35.1095 49.5 27 49.5C18.8905 49.5 11.6699 44.2226 7.02631 39.7775C3.6579 36.553 3.65789 30.947 7.02631 27.7225C11.6699 23.2774 18.8905 18 27 18C35.1095 18 42.3301 23.2774 46.9737 27.7225ZM33.7499 33.75C33.7499 37.4779 30.7279 40.5 26.9999 40.5C23.272 40.5 20.2499 37.4779 20.2499 33.75C20.2499 30.0221 23.272 27 26.9999 27C30.7279 27 33.7499 30.0221 33.7499 33.75Z" fill="#C7F849"/>
</svg>
