<?xml version='1.0' encoding='utf-8'?>
<svg xmlns="http://www.w3.org/2000/svg" id="Layer_1" version="1.1" viewBox="0 0 1080 873.33" width="189" height="25">
  
  <defs>
    <style>
      .st0 {
        fill: #c7f849;
      }

      .st1 {
        fill: #c7f849;
      }
    </style>
  </defs>
  
  <g>
    <path class="st0" d="M411.52,476.77c-4.08-5.22-11.25-8.22-19.66-8.22h-95.34l2.85,16.32c.42,2.37,2.75,4.37,5.08,4.37h71.07c2.33,0,4.37.91,5.59,2.47,1.07,1.38,1.42,3.11.97,4.88l-3.66,14.74c-.92,3.58-4.87,6.38-9.01,6.38h-72.31c-3.34,0-6,1.97-6.75,5l-10.09,40.49h25.97c2.73,0,5.48-1.81,6.02-3.96l4.53-18.18c.4-1.52,1.88-2.61,3.52-2.61l53.17-.05c16.17,0,32.04-10.85,35.37-24.2l5.56-22.41c1.37-5.53.35-10.87-2.9-15.02Z" />
    <path class="st0" d="M548.49,476.89c-4.08-5.22-11.25-8.23-19.68-8.23h-67.17c-16.18,0-32.05,10.83-35.37,24.15l-11.82,47.32c-1.37,5.51-.34,10.83,2.89,14.98,4.08,5.22,11.25,8.21,19.68,8.21h67.17c16.17,0,32.04-10.83,35.36-24.15l11.82-47.32c1.37-5.5.35-10.82-2.88-14.96ZM519.21,495.84l-10.23,40.92c-.66,2.69-3.59,4.78-6.68,4.78h-50.55c-1.77,0-3.33-.7-4.28-1.92-.85-1.08-1.12-2.45-.78-3.83l9.27-37.11-16.98-8.6h75.17c1.77,0,3.33.7,4.28,1.92.85,1.08,1.12,2.45.78,3.84Z" />
    <path class="st0" d="M677.38,477.56c-4.07-5.22-11.27-8.22-19.78-8.22h-95.33l2.83,15.91c.43,2.39,2.83,4.4,5.23,4.4h70.93c2.36,0,4.41.91,5.63,2.48,1.05,1.35,1.39,3.06.95,4.8l-3.67,14.5c-.92,3.53-4.87,6.29-9,6.29h-31.7l27.09,46.28h32.8c1.47,0,2.4-.73,2.74-1.34.26-.49.24-.98-.08-1.48l-13.82-21.7c-.45-.71-.55-1.56-.29-2.36.31-.94,1.06-1.7,2.08-2.11,10.52-4.21,18.43-12.18,20.61-20.79l5.57-22.05c1.37-5.44.41-10.49-2.8-14.61Z" />
    <path class="st0" d="M691.47,468.51c1.22,7.57,2.88,17.8,3.16,19.07.39.96,1.2,2.03,3.82,2.03l30.89.05c1.01,0,1.92.42,2.49,1.15.53.69.71,1.58.48,2.44l-17.4,69.91h25.99c2.72,0,5.47-1.81,6.01-3.96l14.94-60.06-20.37-9.48h57.72c2.72,0,5.47-1.82,6.01-3.97l4.28-17.18h-118.02Z" />
    <path class="st0" d="M332.44,597.21l-57.17,85.7,6.52-26.82-9.75-56.86c-.21-1.2-1.54-2.02-3.33-2.02h-29.89l2.87,16.37q4.77,27.1,9.86,57.36l3.52,20.93h42.59c2.13,0,4.39-1.16,5.49-2.82l12.18-18.31q20.11-30.24,40.63-60.74l8.6-12.78h-32.13Z" transform="translate(715, -130)" />
    <path class="st0" d="M586.56,597.26h-35.82l.44,17.54-19.2,77.12h26c2.72,0,5.46-1.82,6-3.97l14.08-56.52-27.19-13.45,29.66.86,6.03-21.58Z" transform="translate(715, -130)" />
    <path class="st0" d="M409.59,597.26h-35.82l.44,17.54-19.2,77.12h26c2.72,0,5.46-1.82,6-3.97l14.08-56.52-27.19-13.45,29.66.86,6.03-21.58Z" transform="translate(715, -130)" />
    <path class="st0" d="M718.16,605.64c-4.08-5.22-11.25-8.22-19.68-8.22h-67.17c-16.18,0-32.05,10.83-35.36,24.14l-11.82,47.33c-1.37,5.51-.35,10.82,2.89,14.97,4.08,5.22,11.24,8.22,19.67,8.22h67.17c16.17,0,32.04-10.83,35.37-24.15l11.81-47.33c1.37-5.5.35-10.81-2.88-14.96ZM688.88,624.59l-10.22,40.93c-.67,2.68-3.6,4.77-6.68,4.77h-50.56c-1.77,0-3.33-.7-4.28-1.91-.85-1.08-1.12-2.45-.77-3.84l9.27-37.1-16.99-8.6h75.17c1.77,0,3.33.7,4.28,1.91.86,1.09,1.12,2.46.78,3.84Z" transform="translate(715, -130)" />
    <path class="st0" d="M859.84,597.28l-22.55,90.64c-.53,1.9-3.08,3.94-6.05,3.94h-24.1c-1.21,0-2.27-.4-2.84-1.06l-26.9-42.25h0l-8.81-14.68-13.27,54.05c-.53,1.9-3.08,3.93-6.04,3.93h-25.89l22.54-90.64c.53-1.9,3.08-3.94,6.05-3.94h23.8c.13.04.27.06.43.06.71.03,1.35.22,1.97.58l.31.22c.16.12.33.23.51.33,0,0,.03.02.05.03l30.97,49.37.12.16c.9,1.16,2.43,1.68,3.89,1.32,1.31-.32,2.29-1.3,2.55-2.58l11.33-45.55c.53-1.9,3.08-3.93,6.04-3.93h25.9Z" transform="translate(715, -130)" />
    <path class="st0" d="M928.1,468.53l-4.19,17.16c-.59,2.18-3.35,4.03-6.04,4.03h-83.23l-5.84,16.74h67.29c8.43,0,15.61,3,19.72,8.26,3.26,4.17,4.31,9.51,2.94,15.01l-2.35,9.26c-3.31,13.36-19.2,24.24-35.41,24.24h-83.6l4.43-17.94c.49-2.11,3.3-3.96,6.02-3.96h82.14l5.86-15.22h-64.7c-7.99,0-14.94-2.74-19.08-7.52-3.27-3.77-4.62-8.48-3.89-13.62l2.99-12.74c3.63-13.07,19.47-23.7,35.3-23.7h81.63Z" />
    <path class="st0" d="M534.24,597.28l-4.19,17.16c-.59,2.18-3.35,4.03-6.04,4.03h-83.23l-5.83,16.73h67.29c8.42,0,15.6,3.01,19.71,8.26,3.26,4.18,4.31,9.51,2.94,15.02l-2.35,9.25c-3.31,13.37-19.2,24.24-35.4,24.24h-83.61l4.43-17.93c.49-2.11,3.3-3.96,6.03-3.96h82.13l5.86-15.22h-64.7c-7.98,0-14.93-2.75-19.08-7.52-3.27-3.77-4.62-8.49-3.88-13.62l2.99-12.74c3.62-13.07,19.46-23.7,35.3-23.7h81.62Z" transform="translate(715, -130)" />
    <path class="st0" d="M282.6,468.46l-4.19,17.16c-.59,2.19-3.35,4.03-6.04,4.03h-83.23l-5.83,16.74h67.29c8.42,0,15.6,3,19.71,8.26,3.26,4.17,4.31,9.51,2.94,15.01l-2.35,9.26c-3.31,13.37-19.2,24.24-35.4,24.24h-83.61l4.43-17.94c.49-2.11,3.3-3.96,6.03-3.96h82.13l5.86-15.21h-64.7c-7.98,0-14.93-2.75-19.08-7.53-3.27-3.77-4.62-8.48-3.88-13.61l2.99-12.74c3.62-13.08,19.46-23.71,35.3-23.71h81.62Z" />
  </g>
</svg>