<svg width="32" height="32" viewBox="0 0 32 32" fill="none" xmlns="http://www.w3.org/2000/svg">
<g id="Frame">
<path id="Vector" d="M24.4483 24.452H20.8943V18.8829C20.8943 17.5549 20.8673 15.846 19.0423 15.846C17.1893 15.846 16.9063 17.2911 16.9063 18.7849V24.452H13.3523V13H16.7663V14.5609H16.8123C17.2893 13.6609 18.4493 12.711 20.1823 12.711C23.7833 12.711 24.4493 15.0811 24.4493 18.166L24.4483 24.452ZM9.33831 11.433C8.19431 11.433 7.27531 10.507 7.27531 9.368C7.27531 8.23 8.19531 7.305 9.33831 7.305C10.4783 7.305 11.4023 8.23 11.4023 9.368C11.4023 10.507 10.4773 11.433 9.33831 11.433ZM11.1203 24.452H7.55631V13H11.1203V24.452ZM26.2263 4H5.77231C4.79331 4 4.00131 4.774 4.00131 5.729V26.2711C4.00131 27.2269 4.79331 28 5.77231 28H26.2233C27.2013 28 28.0013 27.2269 28.0013 26.2711V5.729C28.0013 4.774 27.2013 4 26.2233 4H26.2263Z" fill="white"/>
</g>
</svg>
