<svg width="54" height="54" viewBox="0 0 54 54" fill="none" xmlns="http://www.w3.org/2000/svg">
<path fill-rule="evenodd" clip-rule="evenodd" d="M27 12.4295L28.7214 10.5801C33.4748 5.47328 41.1815 5.47329 45.9349 10.5801C50.6883 15.687 50.6883 23.9669 45.9349 29.0737L30.4427 45.7179C28.5414 47.7607 25.4586 47.7607 23.5573 45.7179L8.06505 29.0737C3.31165 23.9669 3.31165 15.687 8.06505 10.5801C12.8185 5.47328 20.5252 5.47329 25.2786 10.5801L27 12.4295ZM38.25 11.8125C37.318 11.8125 36.5625 12.568 36.5625 13.5C36.5625 14.432 37.318 15.1875 38.25 15.1875C39.8033 15.1875 41.0625 16.4467 41.0625 18C41.0625 18.932 41.818 19.6875 42.75 19.6875C43.682 19.6875 44.4375 18.932 44.4375 18C44.4375 14.5827 41.6673 11.8125 38.25 11.8125Z" fill="#C7F849"/>
</svg>
