<svg width="27" height="16" viewBox="0 0 27 16" fill="none" xmlns="http://www.w3.org/2000/svg">
<path fill-rule="evenodd" clip-rule="evenodd" d="M26.4548 0.994598C26.4548 1.54688 26.0071 1.9946 25.4548 1.9946H9.04051C8.48823 1.9946 8.04051 1.54688 8.04051 0.994598V0.994598C8.04051 0.442314 8.48823 -0.00540161 9.04051 -0.00540161H25.4548C26.0071 -0.00540161 26.4548 0.442314 26.4548 0.994598V0.994598ZM26.4548 8.01617C26.4548 8.56846 26.0071 9.01617 25.4548 9.01617H3.83252C3.28023 9.01617 2.83252 8.56846 2.83252 8.01617V8.01617C2.83252 7.46389 3.28023 7.01617 3.83252 7.01617H25.4548C26.0071 7.01617 26.4548 7.46389 26.4548 8.01617V8.01617ZM26.4548 14.9448C26.4548 15.497 26.0071 15.9448 25.4548 15.9448H9.04051C8.48823 15.9448 8.04051 15.497 8.04051 14.9448V14.9448C8.04051 14.3925 8.48823 13.9448 9.04051 13.9448H25.4548C26.0071 13.9448 26.4548 14.3925 26.4548 14.9448V14.9448Z" fill="white"/>
</svg>
