<svg width="36" height="45" viewBox="0 0 36 45" fill="none" xmlns="http://www.w3.org/2000/svg">
<g id="reward">
<path id="Combo shape" fill-rule="evenodd" clip-rule="evenodd" d="M21.1673 1.66652C19.3422 0.111162 16.6578 0.111161 14.8327 1.66651L13.2233 3.03806C12.4412 3.70456 11.4687 4.10736 10.4444 4.1891L8.33655 4.35731C5.9462 4.54806 4.04806 6.44619 3.85731 8.83655L3.6891 10.9444C3.60736 11.9687 3.20457 12.9412 2.53806 13.7233L1.16652 15.3327C-0.388838 17.1578 -0.388839 19.8422 1.16651 21.6673L2.53806 23.2767C3.20456 24.0588 3.60736 25.0313 3.6891 26.0556L3.85731 28.1634C4.04806 30.5538 5.9462 32.4519 8.33655 32.6427L10.4444 32.8109C11.4687 32.8926 12.4412 33.2954 13.2233 33.9619L14.8327 35.3335C16.6578 36.8888 19.3422 36.8888 21.1673 35.3335L22.7767 33.9619C23.5588 33.2954 24.5313 32.8926 25.5556 32.8109L27.6635 32.6427C30.0538 32.4519 31.9519 30.5538 32.1427 28.1635L32.3109 26.0556C32.3926 25.0313 32.7954 24.0588 33.4619 23.2767L34.8335 21.6673C36.3888 19.8422 36.3888 17.1578 34.8335 15.3327L33.4619 13.7233C32.7954 12.9412 32.3926 11.9687 32.3109 10.9444L32.1427 8.83655C31.9519 6.4462 30.0538 4.54806 27.6635 4.35731L25.5556 4.1891C24.5313 4.10736 23.5588 3.70457 22.7767 3.03806L21.1673 1.66652ZM6.75 42.1765V35.7941C7.17712 35.899 7.61742 35.9709 8.06808 36.0068L10.1759 36.175C10.4923 36.2003 10.7926 36.3247 11.0342 36.5305L12.6436 37.9021C15.7302 40.5324 20.2698 40.5324 23.3564 37.9021L24.9658 36.5305C25.2074 36.3247 25.5077 36.2003 25.8241 36.175L27.9319 36.0068C28.3826 35.9709 28.8229 35.899 29.25 35.7941V42.1765C29.25 43.7683 27.6423 44.8568 26.1644 44.2656L18.8356 41.3341C18.2992 41.1195 17.7008 41.1195 17.1644 41.3341L9.83563 44.2656C8.35769 44.8568 6.75 43.7683 6.75 42.1765Z" fill="#95D000"/>
</g>
</svg>
