<svg width="54" height="54" viewBox="0 0 54 54" fill="none" xmlns="http://www.w3.org/2000/svg">
<path fill-rule="evenodd" clip-rule="evenodd" d="M22.5 24.75C27.4706 24.75 31.5 20.7206 31.5 15.75C31.5 10.7794 27.4706 6.75 22.5 6.75C17.5294 6.75 13.5 10.7794 13.5 15.75C13.5 20.7206 17.5294 24.75 22.5 24.75ZM22.5 47.25C31.1985 47.25 38.25 43.2206 38.25 38.25C38.25 33.2794 31.1985 29.25 22.5 29.25C13.8015 29.25 6.75 33.2794 6.75 38.25C6.75 43.2206 13.8015 47.25 22.5 47.25ZM31.4131 24.3347C33.5567 22.1096 34.8749 19.0838 34.8749 15.7501C34.8749 14.1648 34.5768 12.6491 34.0335 11.256C37.6298 11.4047 40.4997 14.3673 40.4997 18.0001C40.4997 21.728 37.4777 24.7501 33.7497 24.7501C32.9283 24.7501 32.1412 24.6034 31.4131 24.3347ZM41.6248 38.2498C41.6248 39.4621 41.3554 40.6337 40.8532 41.7409C44.6927 40.5508 47.2498 38.4246 47.2498 35.9998C47.2498 32.6108 42.2548 29.8052 35.7451 29.323C39.3691 31.5749 41.6248 34.7419 41.6248 38.2498Z" fill="#C7F849"/>
</svg>
